<svg
    width="70"
    height="62"
    viewBox="0 0 70 62"
    fill="none"
    xmlns="http://www.w3.org/2000/svg"
>
    <path
        d="M69.6637 57.875L37.1637 1.625C36.6793 0.789062 35.8434 0.375 34.9997 0.375C34.1559 0.375 33.3122 0.789062 32.8356 1.625L0.335598 57.875C-0.62534 59.5469 0.577785 61.625 2.49966 61.625H67.4997C69.4215 61.625 70.6247 59.5469 69.6637 57.875ZM32.4997 23.5C32.4997 23.1562 32.7809 22.875 33.1247 22.875H36.8747C37.2184 22.875 37.4997 23.1562 37.4997 23.5V37.875C37.4997 38.2188 37.2184 38.5 36.8747 38.5H33.1247C32.7809 38.5 32.4997 38.2188 32.4997 37.875V23.5ZM34.9997 51C34.0183 50.98 33.084 50.5761 32.3971 49.875C31.7102 49.1739 31.3254 48.2315 31.3254 47.25C31.3254 46.2685 31.7102 45.3261 32.3971 44.625C33.084 43.9239 34.0183 43.52 34.9997 43.5C35.981 43.52 36.9153 43.9239 37.6022 44.625C38.2892 45.3261 38.6739 46.2685 38.6739 47.25C38.6739 48.2315 38.2892 49.1739 37.6022 49.875C36.9153 50.5761 35.981 50.98 34.9997 51Z"
        fill="#FFC53D"
    />
</svg>
