<svg
    width="1em"
    height="1em"
    viewBox="0 0 24 24"
    color="currentColor"
    xmlns="http://www.w3.org/2000/svg"
>
    <path
        opacity="0.2"
        d="M11.25 5.25L5.655 7.34812C5.53187 7.39432 5.42306 7.47208 5.33947 7.57361C5.25588 7.67514 5.20045 7.79686 5.17875 7.92656L3 21L16.0734 18.8212C16.2031 18.7995 16.3249 18.7441 16.4264 18.6605C16.5279 18.5769 16.6057 18.4681 16.6519 18.345L18.75 12.75L11.25 5.25ZM10.875 15C10.5042 15 10.1416 14.89 9.83331 14.684C9.52496 14.478 9.28464 14.1851 9.14273 13.8425C9.00081 13.4999 8.96368 13.1229 9.03603 12.7592C9.10837 12.3955 9.28695 12.0614 9.54917 11.7992C9.8114 11.537 10.1455 11.3584 10.5092 11.286C10.8729 11.2137 11.2499 11.2508 11.5925 11.3927C11.9351 11.5346 12.228 11.775 12.434 12.0833C12.64 12.3916 12.75 12.7542 12.75 13.125C12.75 13.6223 12.5525 14.0992 12.2008 14.4508C11.8492 14.8025 11.3723 15 10.875 15Z"
        fill="currentColor"
    />
    <path
        d="M22.5 9.43848C22.5006 9.24143 22.462 9.04621 22.3866 8.86419C22.3111 8.68216 22.2002 8.51696 22.0603 8.37817L15.6215 1.93848C15.4822 1.79916 15.3169 1.68864 15.1349 1.61324C14.9528 1.53783 14.7578 1.49902 14.5607 1.49902C14.3637 1.49902 14.1687 1.53783 13.9866 1.61324C13.8046 1.68864 13.6393 1.79916 13.5 1.93848L10.8347 4.6038L5.39715 6.64473C5.15003 6.7369 4.93146 6.89235 4.76331 7.09555C4.59516 7.29875 4.48333 7.54255 4.43903 7.80255L2.26028 20.876C2.2423 20.9834 2.24795 21.0935 2.27685 21.1986C2.30574 21.3037 2.35717 21.4012 2.42758 21.4843C2.49798 21.5675 2.58566 21.6343 2.68451 21.6801C2.78336 21.726 2.89101 21.7497 2.99997 21.7497C3.04142 21.7496 3.0828 21.7461 3.12372 21.7394L16.1962 19.5607C16.4559 19.5173 16.6996 19.4064 16.9028 19.2391C17.1061 19.0717 17.2617 18.8538 17.354 18.6072L19.395 13.1697L22.0603 10.4997C22.2002 10.3608 22.3112 10.1954 22.3867 10.0133C22.4622 9.83107 22.5007 9.63569 22.5 9.43848ZM15.9497 18.0813L5.18622 19.8747L9.62715 15.4338C10.1818 15.7336 10.8259 15.8237 11.4415 15.6877C12.0572 15.5517 12.6033 15.1986 12.98 14.693C13.3568 14.1875 13.539 13.5632 13.4933 12.9344C13.4477 12.3055 13.1772 11.7141 12.7314 11.2683C12.2856 10.8225 11.6942 10.552 11.0653 10.5064C10.4365 10.4607 9.81221 10.6429 9.30666 11.0197C8.80111 11.3964 8.44805 11.9425 8.31203 12.5582C8.17602 13.1738 8.26613 13.8179 8.5659 14.3725L4.12497 18.8154L5.91841 8.04911L11.0625 6.12067L17.8781 12.9372L15.9497 18.0813ZM9.74997 13.1247C9.74997 12.9022 9.81595 12.6847 9.93956 12.4997C10.0632 12.3147 10.2389 12.1705 10.4444 12.0854C10.65 12.0002 10.8762 11.9779 11.0944 12.0214C11.3127 12.0648 11.5131 12.1719 11.6705 12.3292C11.8278 12.4866 11.9349 12.687 11.9784 12.9053C12.0218 13.1235 11.9995 13.3497 11.9143 13.5553C11.8292 13.7608 11.685 13.9365 11.5 14.0601C11.315 14.1838 11.0975 14.2497 10.875 14.2497C10.5766 14.2497 10.2905 14.1312 10.0795 13.9202C9.86849 13.7093 9.74997 13.4231 9.74997 13.1247ZM18.75 11.6885L12.3103 5.24973L14.5603 2.99973L21 9.43848L18.75 11.6885Z"
        fill="currentColor"
    />
</svg>
