<svg
    width="1em"
    height="1em"
    viewBox="0 0 24 24"
    color="currentColor"
    xmlns="http://www.w3.org/2000/svg"
>
    <path
        opacity="0.2"
        d="M20.25 6V18H12V6H20.25Z"
        fill="currentColor"
    />
    <path
        d="M21.0001 12.0004C21.0001 12.1993 20.921 12.3901 20.7804 12.5307C20.6397 12.6714 20.449 12.7504 20.2501 12.7504H12.0001C11.8011 12.7504 11.6104 12.6714 11.4697 12.5307C11.3291 12.3901 11.2501 12.1993 11.2501 12.0004C11.2501 11.8015 11.3291 11.6107 11.4697 11.4701C11.6104 11.3294 11.8011 11.2504 12.0001 11.2504H20.2501C20.449 11.2504 20.6397 11.3294 20.7804 11.4701C20.921 11.6107 21.0001 11.8015 21.0001 12.0004ZM12.0001 6.75042H20.2501C20.449 6.75042 20.6397 6.6714 20.7804 6.53075C20.921 6.39009 21.0001 6.19933 21.0001 6.00042C21.0001 5.8015 20.921 5.61074 20.7804 5.47009C20.6397 5.32943 20.449 5.25042 20.2501 5.25042H12.0001C11.8011 5.25042 11.6104 5.32943 11.4697 5.47009C11.3291 5.61074 11.2501 5.8015 11.2501 6.00042C11.2501 6.19933 11.3291 6.39009 11.4697 6.53075C11.6104 6.6714 11.8011 6.75042 12.0001 6.75042ZM20.2501 17.2504H12.0001C11.8011 17.2504 11.6104 17.3294 11.4697 17.4701C11.3291 17.6107 11.2501 17.8015 11.2501 18.0004C11.2501 18.1993 11.3291 18.3901 11.4697 18.5307C11.6104 18.6714 11.8011 18.7504 12.0001 18.7504H20.2501C20.449 18.7504 20.6397 18.6714 20.7804 18.5307C20.921 18.3901 21.0001 18.1993 21.0001 18.0004C21.0001 17.8015 20.921 17.6107 20.7804 17.4701C20.6397 17.3294 20.449 17.2504 20.2501 17.2504ZM7.71943 3.96979L5.25005 6.4401L4.28068 5.46979C4.13995 5.32906 3.94907 5.25 3.75005 5.25C3.55103 5.25 3.36016 5.32906 3.21943 5.46979C3.0787 5.61052 2.99963 5.80139 2.99963 6.00042C2.99963 6.19944 3.0787 6.39031 3.21943 6.53104L4.71943 8.03104C4.78908 8.10077 4.8718 8.15609 4.96285 8.19384C5.05389 8.23158 5.15149 8.25101 5.25005 8.25101C5.34861 8.25101 5.44621 8.23158 5.53726 8.19384C5.6283 8.15609 5.71102 8.10077 5.78068 8.03104L8.78068 5.03104C8.92141 4.89031 9.00047 4.69944 9.00047 4.50042C9.00047 4.30139 8.92141 4.11052 8.78068 3.96979C8.63995 3.82906 8.44907 3.75 8.25005 3.75C8.05103 3.75 7.86016 3.82906 7.71943 3.96979ZM7.71943 9.96979L5.25005 12.4401L4.28068 11.4698C4.13995 11.3291 3.94907 11.25 3.75005 11.25C3.55103 11.25 3.36016 11.3291 3.21943 11.4698C3.0787 11.6105 2.99963 11.8014 2.99963 12.0004C2.99963 12.099 3.01904 12.1965 3.05676 12.2876C3.09447 12.3786 3.14974 12.4614 3.21943 12.531L4.71943 14.031C4.78908 14.1008 4.8718 14.1561 4.96285 14.1938C5.05389 14.2316 5.15149 14.251 5.25005 14.251C5.34861 14.251 5.44621 14.2316 5.53726 14.1938C5.6283 14.1561 5.71102 14.1008 5.78068 14.031L8.78068 11.031C8.92141 10.8903 9.00047 10.6994 9.00047 10.5004C9.00047 10.3014 8.92141 10.1105 8.78068 9.96979C8.63995 9.82906 8.44907 9.75 8.25005 9.75C8.05103 9.75 7.86016 9.82906 7.71943 9.96979ZM7.71943 15.9698L5.25005 18.4401L4.28068 17.4698C4.21099 17.4001 4.12827 17.3448 4.03722 17.3071C3.94618 17.2694 3.8486 17.25 3.75005 17.25C3.6515 17.25 3.55392 17.2694 3.46288 17.3071C3.37183 17.3448 3.28911 17.4001 3.21943 17.4698C3.14974 17.5395 3.09447 17.6222 3.05676 17.7132C3.01904 17.8043 2.99963 17.9019 2.99963 18.0004C2.99963 18.099 3.01904 18.1965 3.05676 18.2876C3.09447 18.3786 3.14974 18.4614 3.21943 18.531L4.71943 20.031C4.78908 20.1008 4.8718 20.1561 4.96285 20.1938C5.05389 20.2316 5.15149 20.251 5.25005 20.251C5.34861 20.251 5.44621 20.2316 5.53726 20.1938C5.6283 20.1561 5.71102 20.1008 5.78068 20.031L8.78068 17.031C8.92141 16.8903 9.00047 16.6994 9.00047 16.5004C9.00047 16.3014 8.92141 16.1105 8.78068 15.9698C8.63995 15.8291 8.44907 15.75 8.25005 15.75C8.05103 15.75 7.86016 15.8291 7.71943 15.9698Z"
        fill="currentColor"
    />
</svg>
