<svg
    width="1em"
    height="1em"
    viewBox="0 0 24 24"
    color="currentColor"
    xmlns="http://www.w3.org/2000/svg"
>
    <path
        opacity="0.2"
        d="M18 9C18 10.1867 17.6481 11.3467 16.9888 12.3334C16.3295 13.3201 15.3925 14.0892 14.2961 14.5433C13.1997 14.9974 11.9933 15.1162 10.8295 14.8847C9.66557 14.6532 8.59648 14.0818 7.75736 13.2426C6.91825 12.4035 6.3468 11.3344 6.11529 10.1705C5.88378 9.00666 6.0026 7.80026 6.45673 6.7039C6.91085 5.60754 7.67989 4.67047 8.66658 4.01118C9.65328 3.35189 10.8133 3 12 3C13.5913 3 15.1174 3.63214 16.2426 4.75736C17.3679 5.88258 18 7.4087 18 9Z"
        fill="currentColor"
    />
    <path
        d="M21.6488 19.8746C20.2209 17.4062 18.0206 15.6362 15.4528 14.7971C16.723 14.041 17.7098 12.8888 18.2618 11.5176C18.8137 10.1463 18.9003 8.63175 18.5082 7.20652C18.1161 5.78129 17.267 4.52418 16.0912 3.62824C14.9155 2.7323 13.4782 2.24707 12 2.24707C10.5218 2.24707 9.08451 2.7323 7.90878 3.62824C6.73306 4.52418 5.88394 5.78129 5.49183 7.20652C5.09971 8.63175 5.18629 10.1463 5.73825 11.5176C6.29021 12.8888 7.27704 14.041 8.5472 14.7971C5.97938 15.6352 3.77907 17.4052 2.35126 19.8746C2.2989 19.96 2.26417 20.055 2.24912 20.154C2.23407 20.253 2.239 20.3541 2.26363 20.4511C2.28825 20.5482 2.33207 20.6394 2.3925 20.7192C2.45293 20.7991 2.52874 20.8661 2.61547 20.9162C2.7022 20.9663 2.79808 20.9985 2.89745 21.0109C2.99683 21.0234 3.0977 21.0158 3.19409 20.9886C3.29049 20.9614 3.38047 20.9152 3.45872 20.8527C3.53697 20.7902 3.6019 20.7126 3.6497 20.6246C5.41595 17.5721 8.53782 15.7496 12 15.7496C15.4622 15.7496 18.5841 17.5721 20.3503 20.6246C20.3981 20.7126 20.4631 20.7902 20.5413 20.8527C20.6196 20.9152 20.7095 20.9614 20.8059 20.9886C20.9023 21.0158 21.0032 21.0234 21.1026 21.0109C21.2019 20.9985 21.2978 20.9663 21.3845 20.9162C21.4713 20.8661 21.5471 20.7991 21.6075 20.7192C21.6679 20.6394 21.7118 20.5482 21.7364 20.4511C21.761 20.3541 21.766 20.253 21.7509 20.154C21.7358 20.055 21.7011 19.96 21.6488 19.8746ZM6.75001 8.99962C6.75001 7.96127 7.05792 6.94624 7.63479 6.08288C8.21167 5.21952 9.03161 4.54661 9.99092 4.14925C10.9502 3.75189 12.0058 3.64793 13.0242 3.8505C14.0426 4.05307 14.9781 4.55308 15.7123 5.28731C16.4465 6.02154 16.9466 6.957 17.1491 7.9754C17.3517 8.9938 17.2477 10.0494 16.8504 11.0087C16.453 11.968 15.7801 12.788 14.9168 13.3648C14.0534 13.9417 13.0384 14.2496 12 14.2496C10.6081 14.2481 9.27359 13.6945 8.28934 12.7103C7.3051 11.726 6.7515 10.3916 6.75001 8.99962Z"
        fill="currentColor"
    />
</svg>
