<svg
    width="1em"
    height="1em"
    viewBox="0 0 24 24"
    color="currentColor"
    xmlns="http://www.w3.org/2000/svg"
>
    <path
        opacity="0.2"
        d="M21.75 15.7501V18.0001C21.75 18.199 21.671 18.3897 21.5303 18.5304C21.3897 18.671 21.1989 18.7501 21 18.7501H3C2.80109 18.7501 2.61032 18.671 2.46967 18.5304C2.32902 18.3897 2.25 18.199 2.25 18.0001V15.856C2.25 10.4672 6.57656 6.01881 11.9653 6.00006C13.2486 5.9955 14.5202 6.24432 15.7071 6.73226C16.8941 7.2202 17.973 7.93765 18.882 8.84348C19.7911 9.7493 20.5124 10.8257 21.0045 12.0109C21.4967 13.1961 21.75 14.4667 21.75 15.7501Z"
        fill="currentColor"
    />
    <path
        d="M16.5 14.6253C16.5 14.8478 16.434 15.0654 16.3104 15.2504C16.1868 15.4354 16.0111 15.5796 15.8055 15.6647C15.6 15.7499 15.3738 15.7721 15.1555 15.7287C14.9373 15.6853 14.7368 15.5782 14.5795 15.4208C14.4222 15.2635 14.315 15.063 14.2716 14.8448C14.2282 14.6266 14.2505 14.4004 14.3356 14.1948C14.4208 13.9893 14.565 13.8136 14.75 13.6899C14.935 13.5663 15.1525 13.5003 15.375 13.5003C15.6734 13.5003 15.9595 13.6189 16.1705 13.8298C16.3815 14.0408 16.5 14.327 16.5 14.6253ZM8.625 13.5003C8.4025 13.5003 8.18499 13.5663 7.99999 13.6899C7.81498 13.8136 7.67079 13.9893 7.58564 14.1948C7.50049 14.4004 7.47821 14.6266 7.52162 14.8448C7.56503 15.063 7.67217 15.2635 7.82951 15.4208C7.98684 15.5782 8.1873 15.6853 8.40553 15.7287C8.62376 15.7721 8.84996 15.7499 9.05552 15.6647C9.26109 15.5796 9.43679 15.4354 9.56041 15.2504C9.68402 15.0654 9.75 14.8478 9.75 14.6253C9.75 14.327 9.63148 14.0408 9.4205 13.8298C9.20952 13.6189 8.92337 13.5003 8.625 13.5003ZM22.5 15.7503V18.0003C22.5 18.3982 22.342 18.7797 22.0607 19.061C21.7794 19.3423 21.3978 19.5003 21 19.5003H3C2.60218 19.5003 2.22065 19.3423 1.93934 19.061C1.65804 18.7797 1.5 18.3982 1.5 18.0003V15.8563C1.49867 14.4105 1.7923 12.9796 2.36294 11.6512C2.93357 10.3228 3.76922 9.12472 4.81875 8.13034L2.46938 5.78096C2.32865 5.64023 2.24959 5.44936 2.24959 5.25034C2.24959 5.05132 2.32865 4.86044 2.46938 4.71971C2.61011 4.57898 2.80098 4.49992 3 4.49992C3.19903 4.49992 3.3899 4.57898 3.53063 4.71971L5.98313 7.17221C7.74402 5.92459 9.84816 5.2531 12.0062 5.25008C14.1643 5.24706 16.2703 5.91265 18.0347 7.15534L20.4722 4.71784C20.6129 4.57711 20.8038 4.49805 21.0028 4.49805C21.2018 4.49805 21.3927 4.57711 21.5334 4.71784C21.6742 4.85857 21.7532 5.04944 21.7532 5.24846C21.7532 5.44749 21.6742 5.63836 21.5334 5.77909L19.2019 8.10971C19.2722 8.17628 19.3425 8.24378 19.4119 8.31315C20.3938 9.28628 21.1725 10.4449 21.7027 11.7217C22.2328 12.9985 22.5039 14.3679 22.5 15.7503ZM21 15.7503C21 13.3634 20.0518 11.0742 18.364 9.38638C16.6761 7.69855 14.387 6.75034 12 6.75034H11.9681C7.02282 6.76721 3 10.8519 3 15.8563V18.0003H21V15.7503Z"
        fill="currentColor"
    />
</svg>
