<svg
    width="100%"
    height="100%"
    viewBox="0 0 226 196"
    color="currentColor"
    xmlns="http://www.w3.org/2000/svg"
>
    <g clip-path="url(#clip0_6803_4377)">
        <path
            d="M165.463 148.681L41.365 183.022L0.500244 34.3411L124.598 0L165.463 148.681Z"
            fill="white"
        />
        <path
            d="M165.463 148.681L41.365 183.022L0.500244 34.3411L124.598 0L165.463 148.681ZM42.9505 180.219L162.67 147.09L123.012 2.80256L3.2933 35.932L42.9505 180.219Z"
            fill="#D9D9D9"
        />
        <path
            d="M97.5806 66.5956L66.4732 75.2039C66.0344 75.3248 65.5657 75.2661 65.17 75.0407C64.7742 74.8152 64.4837 74.4415 64.3622 74.0015L55.7832 42.788C55.6628 42.3476 55.7213 41.8773 55.9459 41.4803C56.1706 41.0832 56.543 40.7917 56.9816 40.6698L88.089 32.0615C88.5278 31.9406 88.9965 31.9993 89.3923 32.2248C89.788 32.4502 90.0785 32.8239 90.2 33.2639L98.779 64.4775C98.8995 64.9178 98.841 65.3881 98.6163 65.7852C98.3916 66.1823 98.0192 66.4737 97.5806 66.5956ZM57.1641 41.3339C56.9009 41.4071 56.6775 41.5819 56.5427 41.8202C56.4079 42.0585 56.3728 42.3406 56.4451 42.6048L65.0241 73.8183C65.097 74.0824 65.2712 74.3066 65.5087 74.4419C65.7461 74.5771 66.0274 74.6123 66.2907 74.5398L97.3981 65.9315C97.6612 65.8584 97.8847 65.6835 98.0195 65.4453C98.1543 65.207 98.1894 64.9248 98.1171 64.6606L89.5381 33.4471C89.4652 33.1831 89.2909 32.9589 89.0535 32.8236C88.816 32.6884 88.5348 32.6531 88.2715 32.7257L57.1641 41.3339Z"
            fill="#E5E5E5"
        />
        <path
            d="M89.6942 72.8668L58.5868 81.475C58.1919 81.5838 57.7701 81.531 57.4139 81.3281C57.0577 81.1253 56.7963 80.7889 56.687 80.3928L48.1079 49.1794C47.9995 48.7831 48.0521 48.3598 48.2543 48.0024C48.4565 47.645 48.7917 47.3827 49.1864 47.273L80.2938 38.6648C80.6888 38.556 81.1106 38.6088 81.4668 38.8117C81.8229 39.0145 82.0844 39.3509 82.1937 39.7469L90.7727 70.9604C90.8811 71.3567 90.8285 71.78 90.6263 72.1374C90.4241 72.4947 90.0889 72.7571 89.6942 72.8668Z"
            fill="currentColor"
        />
        <path
            d="M125.732 77.1574L38.9238 101.18L39.849 104.546L126.658 80.5235L125.732 77.1574Z"
            fill="#F1F1F1"
        />
        <path
            d="M128.15 85.9231L41.3413 109.945L42.2665 113.311L129.075 89.2891L128.15 85.9231Z"
            fill="#F1F1F1"
        />
        <path
            d="M130.564 94.6887L43.7549 118.711L44.68 122.077L131.489 98.0547L130.564 94.6887Z"
            fill="#F1F1F1"
        />
        <path
            d="M134.807 110.126L47.9983 134.148L48.9234 137.514L135.732 113.492L134.807 110.126Z"
            fill="#F1F1F1"
        />
        <path
            d="M137.213 118.9L50.4043 142.922L51.3294 146.288L138.138 122.266L137.213 118.9Z"
            fill="#F1F1F1"
        />
        <path
            d="M139.63 127.712L52.8218 151.734L53.7469 155.1L140.556 131.078L139.63 127.712Z"
            fill="#F1F1F1"
        />
        <path
            d="M205.187 182.489H76.4561V28.2578H205.187V182.489Z"
            fill="white"
        />
        <path
            d="M205.187 182.489H76.4561V28.2578H205.187V182.489ZM78.7271 180.21H202.916V30.5366H78.7271V180.21Z"
            fill="#D9D9D9"
        />
        <path
            d="M181.749 94.5781H108.149V98.0698H181.749V94.5781Z"
            fill="currentColor"
        />
        <path
            d="M181.749 103.656H108.149V107.148H181.749V103.656Z"
            fill="currentColor"
        />
        <path
            d="M181.749 112.719H108.149V116.21H181.749V112.719Z"
            fill="currentColor"
        />
        <path
            d="M102.159 99.1122C103.413 99.1122 104.43 98.092 104.43 96.8334C104.43 95.5749 103.413 94.5547 102.159 94.5547C100.904 94.5547 99.8877 95.5749 99.8877 96.8334C99.8877 98.092 100.904 99.1122 102.159 99.1122Z"
            fill="currentColor"
        />
        <path
            d="M181.749 55.4453H108.149V58.937H181.749V55.4453Z"
            fill="#E5E5E5"
        />
        <path
            d="M181.749 64.5391H108.149V68.0308H181.749V64.5391Z"
            fill="#E5E5E5"
        />
        <path
            d="M181.749 73.6406H108.149V77.1323H181.749V73.6406Z"
            fill="#E5E5E5"
        />
        <path
            d="M102.159 59.6278C103.413 59.6278 104.43 58.6076 104.43 57.3491C104.43 56.0905 103.413 55.0703 102.159 55.0703C100.904 55.0703 99.8877 56.0905 99.8877 57.3491C99.8877 58.6076 100.904 59.6278 102.159 59.6278Z"
            fill="#E5E5E5"
        />
        <path
            d="M181.749 134.07H108.149V137.562H181.749V134.07Z"
            fill="#E5E5E5"
        />
        <path
            d="M181.749 143.148H108.149V146.64H181.749V143.148Z"
            fill="#E5E5E5"
        />
        <path
            d="M181.749 152.219H108.149V155.71H181.749V152.219Z"
            fill="#E5E5E5"
        />
        <path
            d="M102.159 138.222C103.413 138.222 104.43 137.201 104.43 135.943C104.43 134.684 103.413 133.664 102.159 133.664C100.904 133.664 99.8877 134.684 99.8877 135.943C99.8877 137.201 100.904 138.222 102.159 138.222Z"
            fill="#E5E5E5"
        />
        <path
            d="M199.173 195.772C213.705 195.772 225.485 183.951 225.485 169.37C225.485 154.789 213.705 142.969 199.173 142.969C184.642 142.969 172.862 154.789 172.862 169.37C172.862 183.951 184.642 195.772 199.173 195.772Z"
            fill="#002766"
        />
        <path
            d="M206.466 167.692V162.64C206.466 161.679 206.278 160.728 205.912 159.839C205.546 158.951 205.009 158.144 204.332 157.465C203.655 156.785 202.852 156.246 201.967 155.878C201.082 155.51 200.134 155.32 199.176 155.32C198.218 155.32 197.27 155.51 196.385 155.878C195.5 156.246 194.696 156.785 194.019 157.465C193.342 158.144 192.805 158.951 192.439 159.839C192.073 160.728 191.885 161.679 191.886 162.64V167.692C190.912 167.736 189.992 168.155 189.317 168.863C188.643 169.57 188.267 170.511 188.266 171.49V183.427H210.086V171.49C210.085 170.511 209.709 169.57 209.034 168.863C208.36 168.155 207.44 167.736 206.466 167.692ZM199.176 157.901C200.428 157.903 201.628 158.402 202.514 159.291C203.399 160.179 203.897 161.384 203.899 162.64V167.683H194.453V162.64C194.454 161.384 194.952 160.179 195.838 159.291C196.723 158.402 197.924 157.903 199.176 157.901Z"
            fill="white"
        />
        <path
            d="M201.139 173.617C201.139 173.278 201.051 172.944 200.885 172.649C200.719 172.353 200.479 172.106 200.19 171.931C199.9 171.756 199.57 171.659 199.232 171.649C198.894 171.64 198.559 171.718 198.26 171.877C197.961 172.035 197.708 172.269 197.526 172.555C197.344 172.84 197.238 173.168 197.219 173.507C197.2 173.846 197.269 174.184 197.419 174.488C197.569 174.792 197.794 175.053 198.074 175.243V179.521H200.28V175.243C200.545 175.063 200.761 174.821 200.911 174.537C201.061 174.254 201.139 173.938 201.139 173.617Z"
            fill="#002766"
        />
    </g>
    <defs>
        <clipPath id="clip0_6803_4377">
            <rect width="225" height="196" fill="white" transform="translate(0.5)"/>
        </clipPath>
    </defs>
</svg>
