<svg
    width="100%"
    height="100%"
    viewBox="0 0 335 311"
    color="currentColor"
    xmlns="http://www.w3.org/2000/svg"
>
    <path
        d="M158.044 310.47H4.56194C3.35825 310.47 2.20387 309.992 1.35273 309.141C0.5016 308.29 0.0234375 307.135 0.0234375 305.932V4.94407C0.0339176 3.74729 0.516702 2.60309 1.3667 1.76053C2.2167 0.91797 3.36511 0.445267 4.56194 0.445313H158.044C158.64 0.445313 159.23 0.562703 159.781 0.790784C160.332 1.01887 160.832 1.35317 161.254 1.77461C161.675 2.19605 162.009 2.69637 162.237 3.247C162.465 3.79764 162.583 4.38781 162.583 4.98381V305.932C162.583 306.528 162.465 307.118 162.237 307.668C162.009 308.219 161.675 308.719 161.254 309.141C160.832 309.562 160.332 309.897 159.781 310.125C159.23 310.353 158.64 310.47 158.044 310.47ZM4.56194 0.60428C3.4116 0.606381 2.30897 1.06428 1.49556 1.8777C0.682148 2.69111 0.224247 3.79373 0.222146 4.94407V305.932C0.224247 307.082 0.682148 308.185 1.49556 308.998C2.30897 309.811 3.4116 310.269 4.56194 310.271H158.044C159.195 310.269 160.297 309.811 161.111 308.998C161.924 308.185 162.382 307.082 162.384 305.932V4.94407C162.382 3.79373 161.924 2.69111 161.111 1.8777C160.297 1.06428 159.195 0.606381 158.044 0.60428H4.56194Z"
        fill="#EBEBEB"
    />
    <path
        d="M329.966 310.47H176.484C175.28 310.47 174.126 309.992 173.275 309.141C172.423 308.29 171.945 307.135 171.945 305.932V4.94407C171.956 3.74729 172.439 2.60309 173.289 1.76053C174.139 0.91797 175.287 0.445267 176.484 0.445313H329.966C331.17 0.445313 332.324 0.923475 333.175 1.77461C334.027 2.62574 334.505 3.78013 334.505 4.98381V305.932C334.505 306.528 334.387 307.118 334.159 307.668C333.931 308.219 333.597 308.719 333.175 309.141C332.754 309.562 332.254 309.897 331.703 310.125C331.152 310.353 330.562 310.47 329.966 310.47ZM176.484 0.60428C175.333 0.606381 174.231 1.06428 173.417 1.8777C172.604 2.69111 172.146 3.79373 172.144 4.94407V305.932C172.146 307.082 172.604 308.185 173.417 308.998C174.231 309.811 175.333 310.269 176.484 310.271H329.966C331.117 310.269 332.219 309.811 333.033 308.998C333.846 308.185 334.304 307.082 334.306 305.932V4.94407C334.304 3.79373 333.846 2.69111 333.033 1.8777C332.219 1.06428 331.117 0.606381 329.966 0.60428H176.484Z"
        fill="#EBEBEB"
    />
    <path
        d="M58.4148 90.4609L59.7024 93.06L62.5797 93.4813L60.4973 95.5081L60.9901 98.3695L58.4148 97.0183L55.8475 98.3695L56.3403 95.5081L54.2578 93.4813L57.1351 93.06L58.4148 90.4609Z"
        fill="#EBEBEB"
    />
    <path
        d="M315.657 213.039L316.945 215.646L319.822 216.067L317.739 218.086L318.232 220.956L315.657 219.604L313.09 220.956L313.582 218.086L311.5 216.067L314.377 215.646L315.657 213.039Z"
        fill="#F5F5F5"
    />
    <path
        d="M264.712 288.625L265.999 291.224L268.869 291.645L266.786 293.672L267.279 296.534L264.712 295.182L262.144 296.534L262.629 293.672L260.555 291.645L263.424 291.224L264.712 288.625Z"
        fill="#F5F5F5"
    />
    <path
        d="M148.141 44.2854L148.618 45.2551L149.691 45.4141C149.751 45.4219 149.807 45.4466 149.854 45.4854C149.9 45.5241 149.934 45.5752 149.953 45.6327C149.971 45.6903 149.973 45.7519 149.957 45.8103C149.942 45.8687 149.91 45.9215 149.866 45.9625L149.071 46.7176L149.254 47.7827C149.263 47.842 149.256 47.9027 149.233 47.9581C149.21 48.0136 149.172 48.0617 149.124 48.097C149.075 48.1324 149.018 48.1536 148.958 48.1585C148.898 48.1633 148.838 48.1516 148.785 48.1245L147.831 47.6158L146.877 48.1245C146.824 48.1516 146.764 48.1633 146.704 48.1585C146.644 48.1536 146.587 48.1324 146.538 48.097C146.49 48.0617 146.452 48.0136 146.429 47.9581C146.406 47.9027 146.399 47.842 146.408 47.7827L146.583 46.7176L145.788 45.9625C145.744 45.921 145.712 45.8675 145.697 45.8085C145.682 45.7495 145.685 45.6874 145.704 45.6296C145.723 45.5719 145.759 45.5208 145.806 45.4826C145.853 45.4444 145.911 45.4206 145.971 45.4141L147.036 45.2551L147.513 44.2854C147.532 44.2168 147.573 44.1564 147.63 44.1133C147.687 44.0702 147.756 44.0469 147.827 44.0469C147.898 44.0469 147.968 44.0702 148.024 44.1133C148.081 44.1564 148.122 44.2168 148.141 44.2854Z"
        fill="#EBEBEB"
    />
    <path
        d="M16.8663 276.257L17.3432 277.218L18.4083 277.377C18.4687 277.386 18.5257 277.411 18.5725 277.45C18.6194 277.489 18.6544 277.54 18.6734 277.598C18.6925 277.656 18.6948 277.719 18.6803 277.778C18.6657 277.837 18.6348 277.891 18.5911 277.934L17.7963 278.681L17.9791 279.746C17.9885 279.805 17.9813 279.866 17.9584 279.921C17.9354 279.977 17.8976 280.025 17.8491 280.06C17.8006 280.096 17.7433 280.117 17.6835 280.122C17.6237 280.127 17.5637 280.115 17.5101 280.088L16.5563 279.587L15.6025 280.088C15.549 280.115 15.489 280.127 15.4291 280.122C15.3693 280.117 15.312 280.096 15.2635 280.06C15.215 280.025 15.1772 279.977 15.1543 279.921C15.1313 279.866 15.1242 279.805 15.1336 279.746L15.3164 278.681L14.5215 277.934C14.4779 277.892 14.4469 277.838 14.432 277.78C14.417 277.721 14.4187 277.659 14.4369 277.601C14.455 277.544 14.4889 277.492 14.5348 277.452C14.5806 277.413 14.6366 277.387 14.6964 277.377L15.7615 277.218L16.2463 276.257C16.2676 276.191 16.309 276.134 16.3647 276.094C16.4204 276.053 16.4875 276.031 16.5563 276.031C16.6252 276.031 16.6922 276.053 16.7479 276.094C16.8036 276.134 16.8451 276.191 16.8663 276.257Z"
        fill="#F5F5F5"
    />
    <path
        d="M38.3029 34.0691L38.7798 35.0388L39.8528 35.1898C39.9126 35.1994 39.9686 35.2254 40.0144 35.265C40.0603 35.3046 40.0942 35.3562 40.1123 35.414C40.1305 35.4717 40.1322 35.5334 40.1172 35.5921C40.1023 35.6508 40.0713 35.7042 40.0277 35.7462L39.2328 36.5411L39.4156 37.5982C39.4283 37.6582 39.4234 37.7206 39.4015 37.7779C39.3795 37.8351 39.3414 37.8848 39.2919 37.921C39.2423 37.9571 39.1833 37.9781 39.1221 37.9815C39.0608 37.9849 38.9999 37.9704 38.9467 37.94L37.9929 37.4392L37.0391 37.94C36.9859 37.9704 36.9249 37.9849 36.8637 37.9815C36.8025 37.9781 36.7435 37.9571 36.6939 37.921C36.6444 37.8848 36.6063 37.8351 36.5843 37.7779C36.5624 37.7206 36.5574 37.6582 36.5701 37.5982L36.745 36.5411L35.9502 35.7462C35.9064 35.7037 35.8755 35.6497 35.861 35.5904C35.8464 35.5311 35.8488 35.4689 35.8678 35.411C35.8869 35.353 35.9219 35.3015 35.9687 35.2624C36.0156 35.2233 36.0725 35.1982 36.133 35.1898L37.1981 35.0388L37.7068 34.0691C37.7323 34.0114 37.774 33.9623 37.827 33.9278C37.8799 33.8933 37.9417 33.875 38.0048 33.875C38.068 33.875 38.1298 33.8933 38.1827 33.9278C38.2356 33.9623 38.2773 34.0114 38.3029 34.0691Z"
        fill="#EBEBEB"
    />
    <path
        d="M37.0127 225.643C37.0142 225.852 36.9536 226.058 36.8384 226.232C36.7232 226.407 36.5586 226.544 36.3656 226.625C36.1726 226.706 35.9598 226.729 35.7542 226.689C35.5486 226.649 35.3595 226.549 35.2109 226.401C35.0623 226.254 34.9608 226.065 34.9193 225.86C34.8779 225.655 34.8984 225.442 34.9781 225.248C35.0579 225.055 35.1934 224.889 35.3674 224.772C35.5414 224.656 35.7461 224.594 35.9555 224.594C36.2345 224.594 36.5022 224.704 36.7002 224.901C36.8983 225.097 37.0106 225.364 37.0127 225.643Z"
        fill="#EBEBEB"
    />
    <path
        d="M187.669 93.3539C187.67 93.5633 187.61 93.7685 187.495 93.9433C187.379 94.1182 187.215 94.255 187.022 94.3362C186.829 94.4174 186.616 94.4395 186.41 94.3996C186.205 94.3597 186.016 94.2597 185.867 94.1122C185.718 93.9646 185.617 93.7763 185.576 93.571C185.534 93.3657 185.555 93.1528 185.634 92.9592C185.714 92.7655 185.85 92.6 186.024 92.4834C186.198 92.3669 186.402 92.3047 186.612 92.3047C186.75 92.3037 186.888 92.33 187.016 92.3823C187.144 92.4345 187.261 92.5117 187.359 92.6092C187.457 92.7067 187.535 92.8227 187.588 92.9505C187.642 93.0784 187.669 93.2154 187.669 93.3539Z"
        fill="#EBEBEB"
    />
    <path
        d="M132.856 34.9399C132.856 35.149 132.794 35.3534 132.678 35.5273C132.562 35.7011 132.397 35.8366 132.204 35.9166C132.011 35.9966 131.798 36.0175 131.593 35.9768C131.388 35.936 131.2 35.8353 131.052 35.6874C130.904 35.5396 130.803 35.3512 130.763 35.1462C130.722 34.9411 130.743 34.7286 130.823 34.5354C130.903 34.3422 131.038 34.1771 131.212 34.061C131.386 33.9448 131.59 33.8828 131.799 33.8828C132.079 33.8849 132.347 33.9969 132.545 34.1947C132.742 34.3925 132.854 34.6602 132.856 34.9399Z"
        fill="#F5F5F5"
    />
    <path
        d="M134.53 292.577C137.67 291.835 139.615 288.689 138.874 285.549C138.133 282.409 134.986 280.464 131.846 281.205C128.706 281.946 126.761 285.093 127.502 288.233C128.243 291.373 131.39 293.318 134.53 292.577Z"
        fill="#F0F0F0"
    />
    <path
        d="M131.18 283.484C129.983 283.482 128.817 283.861 127.849 284.565C127.355 285.699 127.234 286.959 127.503 288.166C127.772 289.372 128.417 290.462 129.346 291.278C130.274 292.095 131.438 292.595 132.669 292.707C133.9 292.819 135.135 292.537 136.195 291.902C136.665 291.033 136.9 290.058 136.88 289.071C136.859 288.084 136.582 287.12 136.076 286.272C135.571 285.424 134.854 284.723 133.995 284.235C133.137 283.748 132.167 283.492 131.18 283.492V283.484Z"
        fill="#E6E6E6"
    />
    <path
        d="M85.9281 185.348H37.5625V163.514L85.9281 106.016H109.074V164.754H121.068V185.348H109.074V203.216H85.9281V185.348ZM85.9281 164.754V134.677L60.3663 164.754H85.9281Z"
        fill="currentColor"
    />
    <path
        d="M129.343 155.041C129.343 136.871 132.612 124.154 139.151 116.889C145.69 109.624 155.654 105.995 169.045 106C175.472 106 180.753 106.795 184.886 108.385C188.64 109.737 192.078 111.845 194.988 114.576C197.441 116.918 199.518 119.623 201.148 122.596C202.761 125.701 203.976 128.996 204.765 132.404C206.562 139.686 207.458 147.16 207.435 154.66C207.435 171.998 204.502 184.686 198.636 192.724C192.771 200.763 182.668 204.785 168.329 204.79C160.286 204.79 153.787 203.508 148.832 200.943C143.838 198.337 139.631 194.443 136.647 189.664C134.342 186.146 132.549 181.332 131.266 175.222C129.935 168.579 129.29 161.816 129.343 155.041ZM155.684 155.105C155.684 167.292 156.757 175.604 158.903 180.039C161.049 184.474 164.167 186.702 168.258 186.723C169.556 186.738 170.844 186.494 172.048 186.007C173.251 185.52 174.346 184.799 175.268 183.886C177.25 181.994 178.707 179.005 179.64 174.92C180.572 170.835 181.039 164.476 181.039 155.844C181.039 143.158 179.963 134.63 177.812 130.258C175.66 125.887 172.433 123.704 168.131 123.709C163.743 123.709 160.564 125.937 158.593 130.393C156.621 134.85 155.652 143.087 155.684 155.105Z"
        fill="currentColor"
    />
    <path
        d="M264.014 185.348H215.648V163.514L264.014 106.016H287.16V164.754H299.193V185.348H287.16V203.216H264.014V185.348ZM264.014 164.754V134.677L238.46 164.754H264.014Z"
        fill="currentColor"
    />
    <g opacity="0.3">
        <path
            d="M128.309 72.4551C128.309 72.7494 128.221 73.0371 128.058 73.2817C127.894 73.5263 127.661 73.7168 127.389 73.829C127.117 73.9413 126.818 73.9703 126.529 73.9123C126.241 73.8543 125.976 73.7119 125.768 73.5033C125.561 73.2946 125.42 73.029 125.364 72.7402C125.307 72.4513 125.338 72.1522 125.451 71.8808C125.565 71.6093 125.757 71.3777 126.002 71.2154C126.248 71.053 126.536 70.9672 126.83 70.9688C127.025 70.9688 127.218 71.0073 127.398 71.0821C127.578 71.1569 127.741 71.2665 127.878 71.4046C128.016 71.5427 128.125 71.7066 128.198 71.8869C128.272 72.0672 128.31 72.2603 128.309 72.4551Z"
            fill="currentColor"
        />
        <path
            d="M26.5453 129.559C27.1247 129.559 27.5945 129.09 27.5945 128.51C27.5945 127.931 27.1247 127.461 26.5453 127.461C25.9658 127.461 25.4961 127.931 25.4961 128.51C25.4961 129.09 25.9658 129.559 26.5453 129.559Z"
            fill="currentColor"
        />
        <path
            d="M199.881 282.762C200.711 282.762 201.383 282.09 201.383 281.26C201.383 280.43 200.711 279.758 199.881 279.758C199.051 279.758 198.379 280.43 198.379 281.26C198.379 282.09 199.051 282.762 199.881 282.762Z"
            fill="currentColor"
        />
        <path
            d="M236.01 221.653C236.59 221.653 237.059 221.183 237.059 220.604C237.059 220.024 236.59 219.555 236.01 219.555C235.431 219.555 234.961 220.024 234.961 220.604C234.961 221.183 235.431 221.653 236.01 221.653Z"
            fill="currentColor"
        />
        <path
            d="M305.692 32.7132C305.692 32.9208 305.631 33.1236 305.515 33.2961C305.4 33.4687 305.236 33.6031 305.044 33.6826C304.853 33.762 304.642 33.7827 304.438 33.7423C304.235 33.7018 304.048 33.6019 303.901 33.4551C303.754 33.3084 303.654 33.1214 303.614 32.9179C303.573 32.7144 303.594 32.5035 303.674 32.3117C303.753 32.12 303.887 31.9562 304.06 31.8409C304.233 31.7256 304.435 31.6641 304.643 31.6641C304.921 31.6641 305.188 31.7746 305.385 31.9714C305.582 32.1681 305.692 32.435 305.692 32.7132Z"
            fill="currentColor"
        />
        <path
            d="M105.856 11.557C105.856 11.7645 105.795 11.9673 105.679 12.1399C105.564 12.3124 105.4 12.4469 105.208 12.5263C105.017 12.6057 104.806 12.6265 104.602 12.586C104.399 12.5455 104.212 12.4456 104.065 12.2989C103.918 12.1521 103.818 11.9652 103.778 11.7617C103.737 11.5582 103.758 11.3472 103.838 11.1555C103.917 10.9638 104.052 10.7999 104.224 10.6846C104.397 10.5693 104.599 10.5078 104.807 10.5078C105.085 10.5099 105.35 10.6211 105.547 10.8174C105.743 11.0137 105.854 11.2794 105.856 11.557Z"
            fill="currentColor"
        />
        <path
            d="M189.272 66.6062C189.851 66.6062 190.321 66.1364 190.321 65.557C190.321 64.9776 189.851 64.5078 189.272 64.5078C188.692 64.5078 188.223 64.9776 188.223 65.557C188.223 66.1364 188.692 66.6062 189.272 66.6062Z"
            fill="currentColor"
        />
    </g>
    <path
        d="M80.8054 66.6187C90.4234 66.6187 98.2202 58.8218 98.2202 49.2039C98.2202 39.5859 90.4234 31.7891 80.8054 31.7891C71.1875 31.7891 63.3906 39.5859 63.3906 49.2039C63.3906 58.8218 71.1875 66.6187 80.8054 66.6187Z"
        fill="currentColor"
    />
    <path
        opacity="0.75"
        d="M80.8054 66.6187C90.4234 66.6187 98.2202 58.8218 98.2202 49.2039C98.2202 39.5859 90.4234 31.7891 80.8054 31.7891C71.1875 31.7891 63.3906 39.5859 63.3906 49.2039C63.3906 58.8218 71.1875 66.6187 80.8054 66.6187Z"
        fill="white"
    />
    <path
        opacity="0.2"
        d="M74.8061 36.0704C72.4344 36.0631 70.0864 36.5419 67.907 37.4772C65.2284 40.4212 63.6385 44.1936 63.4019 48.1667C63.1653 52.1399 64.2962 56.0743 66.6065 59.3154C68.9168 62.5564 72.2671 64.9088 76.1002 65.9811C79.9332 67.0533 84.0178 66.7809 87.6745 65.209C89.9416 62.7105 91.4346 59.6076 91.9721 56.2769C92.5096 52.9463 92.0685 49.5312 90.7025 46.4464C89.3364 43.3616 87.1041 40.7398 84.2766 38.8993C81.4491 37.0588 78.1481 36.0788 74.7743 36.0783L74.8061 36.0704Z"
        fill="currentColor"
    />
    <path
        opacity="0.2"
        d="M73.07 40.6678C73.07 40.9822 72.9767 41.2895 72.802 41.551C72.6274 41.8124 72.3791 42.0161 72.0886 42.1365C71.7982 42.2568 71.4785 42.2883 71.1702 42.2269C70.8618 42.1656 70.5785 42.0142 70.3562 41.7919C70.1339 41.5695 69.9825 41.2863 69.9212 40.9779C69.8598 40.6696 69.8913 40.3499 70.0116 40.0594C70.132 39.769 70.3357 39.5207 70.5971 39.346C70.8585 39.1714 71.1659 39.0781 71.4803 39.0781C71.9019 39.0781 72.3062 39.2456 72.6044 39.5437C72.9025 39.8418 73.07 40.2462 73.07 40.6678Z"
        fill="currentColor"
    />
    <path
        opacity="0.2"
        d="M91.7965 39.074C91.7965 39.3884 91.7033 39.6958 91.5286 39.9572C91.3539 40.2186 91.1057 40.4224 90.8152 40.5427C90.5247 40.663 90.2051 40.6945 89.8967 40.6332C89.5884 40.5718 89.3051 40.4204 89.0828 40.1981C88.8605 39.9758 88.7091 39.6925 88.6477 39.3842C88.5864 39.0758 88.6179 38.7562 88.7382 38.4657C88.8585 38.1752 89.0623 37.927 89.3237 37.7523C89.5851 37.5776 89.8924 37.4844 90.2069 37.4844C90.6285 37.4844 91.0328 37.6519 91.3309 37.95C91.629 38.2481 91.7965 38.6524 91.7965 39.074Z"
        fill="currentColor"
    />
    <path
        opacity="0.2"
        d="M88.6165 50.4274C88.6165 50.943 88.4636 51.447 88.1771 51.8758C87.8906 52.3045 87.4835 52.6386 87.0071 52.836C86.5307 53.0333 86.0065 53.0849 85.5008 52.9843C84.9951 52.8837 84.5305 52.6354 84.1659 52.2708C83.8013 51.9062 83.553 51.4417 83.4524 50.936C83.3518 50.4303 83.4035 49.9061 83.6008 49.4297C83.7981 48.9533 84.1323 48.5461 84.561 48.2597C84.9897 47.9732 85.4938 47.8203 86.0094 47.8203C86.7008 47.8203 87.3639 48.095 87.8529 48.5839C88.3418 49.0728 88.6165 49.7359 88.6165 50.4274Z"
        fill="currentColor"
    />
    <path
        opacity="0.2"
        d="M80.3338 57.8564C80.3338 58.5449 80.1297 59.218 79.7471 59.7905C79.3646 60.363 78.8209 60.8092 78.1847 61.0727C77.5486 61.3362 76.8486 61.4052 76.1733 61.2708C75.498 61.1365 74.8776 60.8049 74.3908 60.3181C73.9039 59.8312 73.5723 59.2109 73.438 58.5355C73.3037 57.8602 73.3726 57.1602 73.6361 56.5241C73.8996 55.888 74.3458 55.3443 74.9183 54.9617C75.4908 54.5792 76.1639 54.375 76.8525 54.375C77.7758 54.375 78.6613 54.7418 79.3142 55.3947C79.9671 56.0475 80.3338 56.9331 80.3338 57.8564Z"
        fill="currentColor"
    />
    <path
        d="M287.196 259.263C289.136 251.048 284.047 242.815 275.832 240.876C267.616 238.937 259.384 244.026 257.445 252.241C255.506 260.457 260.594 268.689 268.81 270.628C277.025 272.567 285.257 267.479 287.196 259.263Z"
        fill="currentColor"
    />
    <path
        opacity="0.6"
        d="M287.196 259.263C289.136 251.048 284.047 242.815 275.832 240.876C267.616 238.937 259.384 244.026 257.445 252.241C255.506 260.457 260.594 268.689 268.81 270.628C277.025 272.567 285.257 267.479 287.196 259.263Z"
        fill="white"
    />
    <path
        opacity="0.25"
        d="M281.976 243.925C278.588 242.902 274.95 243.088 271.683 244.45C268.416 245.812 265.724 248.266 264.066 251.393C262.407 254.52 261.886 258.125 262.591 261.594C263.296 265.062 265.184 268.178 267.931 270.409C269.356 270.842 270.838 271.061 272.327 271.061C275.482 271.06 278.56 270.083 281.138 268.263C283.716 266.443 285.667 263.87 286.725 260.897C287.782 257.924 287.893 254.697 287.043 251.658C286.193 248.619 284.423 245.918 281.976 243.925Z"
        fill="currentColor"
    />
    <path
        d="M257.735 260.346C241.417 268.024 253.586 273.946 276.581 265.679C297.874 258.025 305.99 248.376 286.914 251.372C287.939 255.386 261.272 265.775 257.735 260.346Z"
        fill="currentColor"
    />
    <path
        opacity="0.2"
        d="M281.797 106.016C260.424 120.458 232.756 139.534 225.118 185.348H223.488C230.92 140.042 257.579 120.513 278.96 106.016H281.797Z"
        fill="black"
    />
    <path
        d="M171.235 249.432C157.723 249.432 144.362 243.336 137.852 233.384C133.838 227.232 129.172 214.348 143.066 197.156L144.298 198.157C134.474 210.318 132.662 222.519 139.187 232.518C147.136 244.679 165.886 250.799 181.894 246.443C198.291 241.984 208.243 227.725 209.204 207.322C212.487 137.527 249.566 116.027 276.638 100.329C293.465 90.5765 305.618 83.5343 302.947 68.663C302.573 66.6044 301.755 65.1816 300.427 64.3073C296.97 62.0261 290.214 63.6078 282.393 65.428C267.044 69.0048 246.029 73.9009 233.51 52.6073L234.885 51.8125C246.808 72.1046 266.337 67.5502 282.035 63.894C290.214 61.9943 297.272 60.349 301.302 62.9958C303.011 64.1165 304.06 65.889 304.481 68.4007C307.35 84.3609 294.148 92.0231 277.417 101.72C250.655 117.235 214.013 138.481 210.77 207.433C209.769 228.576 199.388 243.367 182.283 248.017C178.68 248.977 174.964 249.453 171.235 249.432Z"
        fill="currentColor"
    />
    <path
        opacity="0.2"
        d="M171.235 249.432C157.723 249.432 144.362 243.336 137.852 233.384C133.838 227.232 129.172 214.348 143.066 197.156L144.298 198.157C134.474 210.318 132.662 222.519 139.187 232.518C147.136 244.679 165.886 250.799 181.894 246.443C198.291 241.984 208.243 227.725 209.204 207.322C212.487 137.527 249.566 116.027 276.638 100.329C293.465 90.5765 305.618 83.5343 302.947 68.663C302.573 66.6044 301.755 65.1816 300.427 64.3073C296.97 62.0261 290.214 63.6078 282.393 65.428C267.044 69.0048 246.029 73.9009 233.51 52.6073L234.885 51.8125C246.808 72.1046 266.337 67.5502 282.035 63.894C290.214 61.9943 297.272 60.349 301.302 62.9958C303.011 64.1165 304.06 65.889 304.481 68.4007C307.35 84.3609 294.148 92.0231 277.417 101.72C250.655 117.235 214.013 138.481 210.77 207.433C209.769 228.576 199.388 243.367 182.283 248.017C178.68 248.977 174.964 249.453 171.235 249.432Z"
        fill="white"
    />
    <path
        d="M217.141 33.8203C220.803 33.8414 224.441 34.4121 227.934 35.5133C227.934 35.5133 236.678 50.4323 237.711 53.8501C237.345 57.2202 231.662 62.7443 231.662 62.7443L217.141 33.8203Z"
        fill="currentColor"
    />
    <path
        opacity="0.3"
        d="M217.141 33.8203C220.803 33.8414 224.441 34.4121 227.934 35.5133C227.934 35.5133 236.678 50.4323 237.711 53.8501C237.345 57.2202 231.662 62.7443 231.662 62.7443L217.141 33.8203Z"
        fill="white"
    />
    <path
        d="M243.038 106.252C239.671 102.135 236.601 97.7841 233.85 93.2324C233.182 92.0825 232.549 90.9115 231.95 89.7192C231.609 89.0436 231.283 88.368 230.965 87.6845C230.548 87.0193 230.224 86.2998 230.003 85.5464C229.049 75.4758 232.499 68.06 229.208 59.9766L216.109 65.0953C216.109 65.0953 217.222 79.4977 219.766 88.1455C221.355 93.4947 224.916 98.1206 228.358 102.405C229.431 103.74 230.464 105.115 231.537 106.458C232.61 107.802 233.691 108.891 234.716 110.154C236.266 112.07 236.775 113.906 235.607 116.163L235.408 116.521C235.074 117.109 236.632 117.777 237.618 116.521C239.207 114.47 238.985 114.598 240.368 112.849C241.21 111.792 242.172 110.639 243.007 109.67C243.409 109.193 243.633 108.59 243.638 107.966C243.644 107.342 243.432 106.736 243.038 106.252Z"
        fill="currentColor"
    />
    <path
        opacity="0.7"
        d="M243.038 106.252C239.671 102.135 236.601 97.7841 233.85 93.2324C233.182 92.0825 232.549 90.9115 231.95 89.7192C231.609 89.0436 231.283 88.368 230.965 87.6845C230.548 87.0193 230.224 86.2998 230.003 85.5464C229.049 75.4758 232.499 68.06 229.208 59.9766L216.109 65.0953C216.109 65.0953 217.222 79.4977 219.766 88.1455C221.355 93.4947 224.916 98.1206 228.358 102.405C229.431 103.74 230.464 105.115 231.537 106.458C232.61 107.802 233.691 108.891 234.716 110.154C236.266 112.07 236.775 113.906 235.607 116.163L235.408 116.521C235.074 117.109 236.632 117.777 237.618 116.521C239.207 114.47 238.985 114.598 240.368 112.849C241.21 111.792 242.172 110.639 243.007 109.67C243.409 109.193 243.633 108.59 243.638 107.966C243.644 107.342 243.432 106.736 243.038 106.252Z"
        fill="white"
    />
    <path
        opacity="0.3"
        d="M239.836 102.117C237.758 104.345 235.451 106.349 232.953 108.094C233.295 108.476 233.629 108.889 233.971 109.255C236.471 107.565 238.742 105.559 240.727 103.286L239.836 102.117Z"
        fill="currentColor"
    />
    <path
        opacity="0.3"
        d="M243.043 106.252L242.948 106.141C242.336 106.842 241.981 107.73 241.939 108.66C241.887 109.298 241.991 109.939 242.241 110.528L242.996 109.63C243.39 109.158 243.611 108.565 243.619 107.949C243.628 107.334 243.425 106.735 243.043 106.252Z"
        fill="currentColor"
    />
    <path
        d="M214.028 43.3593C212.608 45.4855 210.905 47.4082 208.965 49.0741C207.889 50.0012 206.71 50.8013 205.452 51.4586C204.79 51.7975 204.105 52.087 203.401 52.325L202.861 52.4999L202.686 52.5475L202.312 52.6509C202.082 52.7055 201.848 52.7427 201.613 52.7622C200.942 52.8134 200.268 52.7516 199.618 52.5793C198.798 52.3467 198.012 52.0073 197.281 51.5699C196.692 51.2259 196.122 50.8518 195.572 50.4492C194.578 49.71 193.628 48.9138 192.726 48.0647C190.988 46.4174 189.392 44.6252 187.957 42.7075C187.681 42.3339 187.544 41.8756 187.569 41.4116C187.595 40.9477 187.782 40.5071 188.097 40.1661C188.413 39.8251 188.838 39.6049 189.298 39.5436C189.759 39.4822 190.226 39.5836 190.62 39.8302H190.684C192.56 41.0225 194.451 42.2783 196.295 43.399C197.233 43.9475 198.139 44.5038 199.037 44.933C199.447 45.1477 199.869 45.3388 200.301 45.5053C200.57 45.6241 200.858 45.6941 201.152 45.712C201.199 45.712 201.152 45.6563 200.858 45.6643C200.765 45.6587 200.672 45.6587 200.579 45.6643L200.405 45.704L200.667 45.5689C201.02 45.3789 201.362 45.1693 201.692 44.941C202.403 44.4395 203.068 43.8756 203.679 43.2559C205.068 41.8007 206.368 40.264 207.574 38.6539C208.234 37.9149 209.147 37.4494 210.133 37.3487C211.119 37.248 212.107 37.5194 212.904 38.1096C213.7 38.6998 214.247 39.5663 214.437 40.539C214.628 41.5117 214.448 42.5204 213.933 43.3672L214.028 43.3593Z"
        fill="currentColor"
    />
    <path
        opacity="0.7"
        d="M214.028 43.3593C212.608 45.4855 210.905 47.4082 208.965 49.0741C207.889 50.0012 206.71 50.8013 205.452 51.4586C204.79 51.7975 204.105 52.087 203.401 52.325L202.861 52.4999L202.686 52.5475L202.312 52.6509C202.082 52.7055 201.848 52.7427 201.613 52.7622C200.942 52.8134 200.268 52.7516 199.618 52.5793C198.798 52.3467 198.012 52.0073 197.281 51.5699C196.692 51.2259 196.122 50.8518 195.572 50.4492C194.578 49.71 193.628 48.9138 192.726 48.0647C190.988 46.4174 189.392 44.6252 187.957 42.7075C187.681 42.3339 187.544 41.8756 187.569 41.4116C187.595 40.9477 187.782 40.5071 188.097 40.1661C188.413 39.8251 188.838 39.6049 189.298 39.5436C189.759 39.4822 190.226 39.5836 190.62 39.8302H190.684C192.56 41.0225 194.451 42.2783 196.295 43.399C197.233 43.9475 198.139 44.5038 199.037 44.933C199.447 45.1477 199.869 45.3388 200.301 45.5053C200.57 45.6241 200.858 45.6941 201.152 45.712C201.199 45.712 201.152 45.6563 200.858 45.6643C200.765 45.6587 200.672 45.6587 200.579 45.6643L200.405 45.704L200.667 45.5689C201.02 45.3789 201.362 45.1693 201.692 44.941C202.403 44.4395 203.068 43.8756 203.679 43.2559C205.068 41.8007 206.368 40.264 207.574 38.6539C208.234 37.9149 209.147 37.4494 210.133 37.3487C211.119 37.248 212.107 37.5194 212.904 38.1096C213.7 38.6998 214.247 39.5663 214.437 40.539C214.628 41.5117 214.448 42.5204 213.933 43.3672L214.028 43.3593Z"
        fill="white"
    />
    <path
        d="M184.975 38.1272L185.905 39.7168C185.905 39.7168 186.612 41.7993 188.035 42.1808L191.898 40.9329L191.699 40.6071C191.206 39.8599 191.262 38.4054 191.429 37.1972C191.596 35.9891 190.976 35.9493 190.515 36.2514C190.188 36.6272 189.959 37.0775 189.847 37.5628C189.658 37.3004 189.448 37.0532 189.219 36.8236L188.043 35.6473C187.796 35.4061 187.467 35.2671 187.122 35.2583C186.777 35.2494 186.442 35.3714 186.183 35.5996L185.229 36.4501C185.003 36.6594 184.855 36.9393 184.808 37.2441C184.762 37.5488 184.821 37.8602 184.975 38.1272Z"
        fill="currentColor"
    />
    <path
        opacity="0.7"
        d="M184.975 38.1272L185.905 39.7168C185.905 39.7168 186.612 41.7993 188.035 42.1808L191.898 40.9329L191.699 40.6071C191.206 39.8599 191.262 38.4054 191.429 37.1972C191.596 35.9891 190.976 35.9493 190.515 36.2514C190.188 36.6272 189.959 37.0775 189.847 37.5628C189.658 37.3004 189.448 37.0532 189.219 36.8236L188.043 35.6473C187.796 35.4061 187.467 35.2671 187.122 35.2583C186.777 35.2494 186.442 35.3714 186.183 35.5996L185.229 36.4501C185.003 36.6594 184.855 36.9393 184.808 37.2441C184.762 37.5488 184.821 37.8602 184.975 38.1272Z"
        fill="white"
    />
    <path
        d="M221.047 32.4008C216.762 33.5365 212.658 35.2675 208.854 37.5434C208.261 37.9148 207.795 38.4587 207.519 39.1022C207.244 39.7458 207.172 40.4582 207.312 41.144C208.846 48.6472 212.336 58.6939 216.103 65.0923L233.677 57.8196C233.796 54.7197 229.528 44.6889 225.18 34.9919C224.401 33.2513 222.899 31.9557 221.047 32.4008Z"
        fill="currentColor"
    />
    <path
        opacity="0.8"
        d="M221.047 32.4008C216.762 33.5365 212.658 35.2675 208.854 37.5434C208.261 37.9148 207.795 38.4587 207.519 39.1022C207.244 39.7458 207.172 40.4582 207.312 41.144C208.846 48.6472 212.336 58.6939 216.103 65.0923L233.677 57.8196C233.796 54.7197 229.528 44.6889 225.18 34.9919C224.401 33.2513 222.899 31.9557 221.047 32.4008Z"
        fill="white"
    />
    <path
        opacity="0.3"
        d="M227.907 41.145L224.418 39.9766C225.213 42.0193 228.019 44.6025 229.982 46.1206C229.346 44.531 228.639 42.8618 227.907 41.145Z"
        fill="currentColor"
    />
    <path
        d="M219.896 24.538C218.441 21.772 215.301 20.3811 211.534 20.6911C208.355 20.9613 205.541 24.2042 205.875 25.9529C206.208 27.7015 208.879 28.4486 209.388 29.0527L207.186 30.6424C206.925 30.8306 206.705 31.0697 206.539 31.3452C206.373 31.6207 206.265 31.927 206.22 32.2455C206.176 32.5641 206.196 32.8884 206.28 33.1989C206.364 33.5093 206.51 33.7996 206.709 34.0522C207.639 35.2286 208.863 36.4367 209.571 37.3269C215.659 37.168 220.166 34.847 221.795 32.6136C221.183 29.784 221.31 27.2882 219.896 24.538Z"
        fill="currentColor"
    />
    <path
        opacity="0.8"
        d="M219.896 24.538C218.441 21.772 215.301 20.3811 211.534 20.6911C208.355 20.9613 205.541 24.2042 205.875 25.9529C206.208 27.7015 208.879 28.4486 209.388 29.0527L207.186 30.6424C206.925 30.8306 206.705 31.0697 206.539 31.3452C206.373 31.6207 206.265 31.927 206.22 32.2455C206.176 32.5641 206.196 32.8884 206.28 33.1989C206.364 33.5093 206.51 33.7996 206.709 34.0522C207.639 35.2286 208.863 36.4367 209.571 37.3269C215.659 37.168 220.166 34.847 221.795 32.6136C221.183 29.784 221.31 27.2882 219.896 24.538Z"
        fill="white"
    />
    <path
        d="M216.908 26.2584C217.34 27.3669 217.434 28.5786 217.178 29.7405C216.921 30.9023 216.326 31.9621 215.468 32.7858C214.609 33.6095 213.526 34.1603 212.354 34.3684C211.183 34.5765 209.976 34.4326 208.887 33.955C207.797 33.4773 206.873 32.6874 206.232 31.6849C205.592 30.6824 205.262 29.5125 205.286 28.323C205.31 27.1335 205.686 25.9777 206.367 25.0019C207.048 24.0261 208.003 23.274 209.111 22.8406C210.598 22.2612 212.254 22.2957 213.716 22.9365C215.178 23.5773 216.326 24.7721 216.908 26.2584Z"
        fill="#263238"
    />
    <path
        d="M268.513 97.8877C268.425 95.2727 268.306 95.5032 268.234 93.3016C268.187 91.9503 268.179 90.4481 268.171 89.1525C268.168 88.5373 267.953 87.9418 267.562 87.4668C267.171 86.9918 266.628 86.6663 266.025 86.5455C264.976 86.3309 263.919 86.1322 262.845 85.9096C261.47 85.6155 260.111 85.2976 258.768 84.9081C257.719 84.6061 256.686 84.2722 255.66 83.8987C254.635 83.5251 253.482 83.1038 252.417 82.611C251.161 82.0785 249.921 81.5062 248.697 80.9101C247.322 80.2583 245.963 79.5748 244.604 78.8833C239.374 70.2275 239.263 64.5206 233.651 57.8281L221.602 63.2807C221.602 63.2807 230.456 78.9866 236.481 85.6473C239.954 89.4784 245.399 91.2111 250.255 92.467C253.761 93.3651 257.313 94.0566 260.866 94.7164C262.249 94.9707 263.752 95.0661 264.944 95.8927C265.826 96.569 266.431 97.5441 266.645 98.6349C266.698 98.8574 266.745 99.08 266.788 99.3025C266.939 99.9702 268.568 99.4615 268.513 97.8877Z"
        fill="currentColor"
    />
    <path
        opacity="0.8"
        d="M268.513 97.8877C268.425 95.2727 268.306 95.5032 268.234 93.3016C268.187 91.9503 268.179 90.4481 268.171 89.1525C268.168 88.5373 267.953 87.9418 267.562 87.4668C267.171 86.9918 266.628 86.6663 266.025 86.5455C264.976 86.3309 263.919 86.1322 262.845 85.9096C261.47 85.6155 260.111 85.2976 258.768 84.9081C257.719 84.6061 256.686 84.2722 255.66 83.8987C254.635 83.5251 253.482 83.1038 252.417 82.611C251.161 82.0785 249.921 81.5062 248.697 80.9101C247.322 80.2583 245.963 79.5748 244.604 78.8833C239.374 70.2275 239.263 64.5206 233.651 57.8281L221.602 63.2807C221.602 63.2807 230.456 78.9866 236.481 85.6473C239.954 89.4784 245.399 91.2111 250.255 92.467C253.761 93.3651 257.313 94.0566 260.866 94.7164C262.249 94.9707 263.752 95.0661 264.944 95.8927C265.826 96.569 266.431 97.5441 266.645 98.6349C266.698 98.8574 266.745 99.08 266.788 99.3025C266.939 99.9702 268.568 99.4615 268.513 97.8877Z"
        fill="white"
    />
    <path
        opacity="0.3"
        d="M262.405 85.8024C261.929 85.6991 261.452 85.5958 260.967 85.4766C261.007 88.2267 259.719 92.9639 259.25 94.4025L260.76 94.6887C261.75 91.8255 262.304 88.8301 262.405 85.8024Z"
        fill="currentColor"
    />
    <path
        opacity="0.3"
        d="M268.206 89.1487C268.204 88.5346 267.99 87.94 267.601 87.4651C267.211 86.9902 266.67 86.6641 266.068 86.5416L265.273 86.3906C265.401 87.2942 265.864 88.1168 266.569 88.6956C267.023 89.1151 267.567 89.4251 268.159 89.6017C268.206 89.4587 268.206 89.2997 268.206 89.1487Z"
        fill="currentColor"
    />
    <path
        d="M215.783 26.3039C216.101 27.5121 214.75 28.7758 213.677 27.7346C212.675 26.6608 211.579 25.6792 210.402 24.8017C209.297 24.1102 210.767 22.902 212.508 23.371C213.251 23.5576 213.937 23.9221 214.508 24.4331C215.078 24.944 215.516 25.5861 215.783 26.3039Z"
        fill="white"
    />
    <path
        d="M215.873 64.7118C215.317 64.9184 216.334 65.8723 216.334 65.8723C216.334 65.8723 227.462 62.065 234.218 58.1465C234.234 57.9092 234.194 57.6715 234.1 57.4531C234.006 57.2347 233.861 57.0418 233.678 56.8906C227.895 59.832 221.951 62.4432 215.873 64.7118Z"
        fill="currentColor"
    />
    <path
        opacity="0.5"
        d="M215.873 64.7118C215.317 64.9184 216.334 65.8723 216.334 65.8723C216.334 65.8723 227.462 62.065 234.218 58.1465C234.234 57.9092 234.194 57.6715 234.1 57.4531C234.006 57.2347 233.861 57.0418 233.678 56.8906C227.895 59.832 221.951 62.4432 215.873 64.7118Z"
        fill="white"
    />
    <path
        d="M224.057 31.8851C226.251 32.9978 228.309 34.1662 230.416 35.4618C231.441 36.1136 232.458 36.7733 233.468 37.4886C234.477 38.204 235.479 38.9352 236.488 39.7619L236.862 40.0718L237.331 40.5011C237.61 40.7511 237.875 41.0164 238.125 41.2959C238.38 41.5741 238.594 41.8443 238.801 42.0907C239.008 42.3371 239.23 42.6312 239.413 42.8856C240.154 43.9074 240.838 44.9687 241.464 46.0649C242.696 48.1906 243.759 50.4097 244.643 52.7018C244.807 53.1348 244.815 53.6111 244.667 54.0497C244.519 54.4883 244.224 54.8621 243.831 55.1075C243.439 55.3529 242.973 55.4548 242.514 55.3959C242.055 55.337 241.63 55.1208 241.313 54.7842L241.273 54.7365C239.683 53.0435 238.149 51.2631 236.607 49.6019C235.065 47.9407 233.499 46.2557 232.204 45.5165C230.4 44.3957 228.389 43.275 226.394 42.1782L220.385 38.8399C219.453 38.3466 218.755 37.5034 218.445 36.4957C218.135 35.4881 218.238 34.3985 218.731 33.4668C219.225 32.535 220.068 31.8374 221.076 31.5274C222.083 31.2173 223.173 31.3202 224.105 31.8135L224.057 31.8851Z"
        fill="currentColor"
    />
    <path
        opacity="0.8"
        d="M224.057 31.8851C226.251 32.9978 228.309 34.1662 230.416 35.4618C231.441 36.1136 232.458 36.7733 233.468 37.4886C234.477 38.204 235.479 38.9352 236.488 39.7619L236.862 40.0718L237.331 40.5011C237.61 40.7511 237.875 41.0164 238.125 41.2959C238.38 41.5741 238.594 41.8443 238.801 42.0907C239.008 42.3371 239.23 42.6312 239.413 42.8856C240.154 43.9074 240.838 44.9687 241.464 46.0649C242.696 48.1906 243.759 50.4097 244.643 52.7018C244.807 53.1348 244.815 53.6111 244.667 54.0497C244.519 54.4883 244.224 54.8621 243.831 55.1075C243.439 55.3529 242.973 55.4548 242.514 55.3959C242.055 55.337 241.63 55.1208 241.313 54.7842L241.273 54.7365C239.683 53.0435 238.149 51.2631 236.607 49.6019C235.065 47.9407 233.499 46.2557 232.204 45.5165C230.4 44.3957 228.389 43.275 226.394 42.1782L220.385 38.8399C219.453 38.3466 218.755 37.5034 218.445 36.4957C218.135 35.4881 218.238 34.3985 218.731 33.4668C219.225 32.535 220.068 31.8374 221.076 31.5274C222.083 31.2173 223.173 31.3202 224.105 31.8135L224.057 31.8851Z"
        fill="white"
    />
    <path
        d="M246.532 56.6621L245.856 54.9691C245.856 54.9691 245.482 52.8072 244.139 52.2031L240.165 52.831L240.3 53.1808C240.666 53.9756 240.387 55.4302 240.03 56.5906C239.672 57.7511 240.276 57.9021 240.785 57.6716C241.071 57.5444 241.349 57.0278 241.651 56.4793C241.799 56.7556 241.967 57.0212 242.152 57.2742L243.13 58.6174C243.334 58.8958 243.636 59.0866 243.975 59.1514C244.314 59.2163 244.665 59.1505 244.958 58.9672L246.039 58.2757C246.292 58.1025 246.478 57.8485 246.568 57.5553C246.657 57.262 246.645 56.9471 246.532 56.6621Z"
        fill="currentColor"
    />
    <path
        opacity="0.8"
        d="M246.532 56.6621L245.856 54.9691C245.856 54.9691 245.482 52.8072 244.139 52.2031L240.165 52.831L240.3 53.1808C240.666 53.9756 240.387 55.4302 240.03 56.5906C239.672 57.7511 240.276 57.9021 240.785 57.6716C241.071 57.5444 241.349 57.0278 241.651 56.4793C241.799 56.7556 241.967 57.0212 242.152 57.2742L243.13 58.6174C243.334 58.8958 243.636 59.0866 243.975 59.1514C244.314 59.2163 244.665 59.1505 244.958 58.9672L246.039 58.2757C246.292 58.1025 246.478 57.8485 246.568 57.5553C246.657 57.262 246.645 56.9471 246.532 56.6621Z"
        fill="white"
    />
    <path
        opacity="0.3"
        d="M220.704 41.0156L219.735 41.0951L213.781 55.4657C214.107 55.4891 214.434 55.4623 214.751 55.3862C214.751 55.3862 222.509 52.493 224.853 51.4121C223.28 48.1612 220.704 41.0156 220.704 41.0156Z"
        fill="currentColor"
    />
    <path
        d="M209.84 44.7896C210.563 48.5461 211.906 52.1562 213.814 55.4721C216.723 54.4707 221.572 52.579 223.924 51.498C222.343 48.108 220.939 44.6378 219.72 41.1016C217.232 41.2685 211.771 43.3589 209.84 44.7896Z"
        fill="white"
    />
    <path
        opacity="0.3"
        d="M215.746 47.8958C215.63 48.2845 215.401 48.63 215.088 48.8886C214.776 49.1472 214.393 49.3072 213.99 49.3485C213.586 49.3898 213.179 49.3104 212.821 49.1205C212.463 48.9305 212.168 48.6385 211.976 48.2814C211.783 47.9243 211.701 47.5181 211.74 47.1142C211.778 46.7103 211.936 46.3269 212.192 46.0125C212.448 45.6981 212.792 45.4668 213.18 45.3479C213.568 45.229 213.982 45.2278 214.371 45.3444C214.891 45.5007 215.329 45.8572 215.586 46.3356C215.844 46.814 215.902 47.3752 215.746 47.8958Z"
        fill="currentColor"
    />
    <path
        opacity="0.6"
        d="M217.263 45.1652C217.232 45.2978 217.162 45.418 217.061 45.51C216.961 45.602 216.835 45.6614 216.7 45.6805C216.565 45.6996 216.428 45.6774 216.305 45.617C216.183 45.5565 216.082 45.4605 216.016 45.3416C215.949 45.2228 215.92 45.0866 215.932 44.9509C215.945 44.8152 215.998 44.6863 216.084 44.5813C216.171 44.4763 216.288 44.3999 216.419 44.3622C216.55 44.3246 216.689 44.3274 216.818 44.3703C216.979 44.4218 217.115 44.5325 217.197 44.68C217.28 44.8276 217.303 45.0009 217.263 45.1652Z"
        fill="currentColor"
    />
    <path
        opacity="0.6"
        d="M219.045 44.4732C219.026 44.5654 218.988 44.6527 218.934 44.7295C218.88 44.8063 218.81 44.8709 218.729 44.9191C218.649 44.9674 218.559 44.9983 218.465 45.0098C218.372 45.0213 218.277 45.0131 218.187 44.9859C218.097 44.9587 218.014 44.9129 217.942 44.8516C217.871 44.7903 217.813 44.7148 217.773 44.6298C217.732 44.5449 217.71 44.4525 217.707 44.3584C217.705 44.2644 217.722 44.1708 217.757 44.0838C217.783 43.9996 217.824 43.9214 217.88 43.8535C217.936 43.7855 218.005 43.7293 218.082 43.6879C218.16 43.6466 218.245 43.6209 218.332 43.6125C218.419 43.604 218.508 43.6129 218.592 43.6386C218.762 43.6902 218.905 43.8067 218.99 43.9629C219.074 44.1191 219.094 44.3025 219.045 44.4732Z"
        fill="currentColor"
    />
    <path
        opacity="0.5"
        d="M221.539 50.6653L214.187 53.5665L213.75 52.1199L221.094 49.2188L221.539 50.6653Z"
        fill="currentColor"
    />
</svg>
