<svg
        width="370"
        height="80"
        viewBox="0 0 370 80"
        color="currentColor"
        xmlns="http://www.w3.org/2000/svg"
>
    <g>
        <path
                fill="currentColor"
                d="M 24.341013,62.185351 C 16.305026,61.136831 9.0131523,54.798627 6.8468903,46.979186 6.0730596,44.185931 5.9988761,39.332828 6.6909884,36.780032 10.034967,24.446056 23.37852,17.705639 35.14793,22.405169 c 4.052991,1.618361 7.902957,4.744271 10.100924,8.20126 l 1.014149,1.595065 c -9.686119,4.40998 1.169865,-0.542535 -9.334555,4.248458 -0.523768,-0.947634 -2.470486,-3.416836 -4.362131,-4.420573 -4.559916,-2.419563 -9.91616,-1.404318 -13.302035,2.355151 -6.717061,7.458213 -0.695051,19.147353 9.278119,18.009479 2.246613,-0.256324 3.845143,-0.861897 5.521086,-2.091561 0.995558,-0.730455 2.529979,-2.522486 2.765905,-3.230264 9.827879,4.070365 -1.827445,-0.756813 9.491042,3.922599 l -1.329347,1.987539 c -4.473712,6.688749 -12.501116,10.266289 -20.650074,9.203029 z"
        />
        <path
                fill="currentColor"
                d="m 81.620497,61.139944 c -8.205836,-1.318034 -15.174208,-7.40893 -17.315151,-15.13478 -1.718024,-6.1997 -0.420491,-12.637616 3.606771,-17.895563 2.641304,-3.448455 7.07305,-6.419084 11.333333,-7.596806 2.645665,-0.731375 7.239822,-0.815919 10.081538,-0.185526 6.806818,1.50999 12.782952,6.555106 15.205322,12.836495 4.50509,11.682078 -2.36737,24.462727 -14.835818,27.590042 -1.814775,0.455178 -6.308491,0.670037 -8.075995,0.386138 z m 6.956425,-10.342678 c 6.509724,-2.287984 9.11311,-10.683999 5.114784,-16.495368 -2.513246,-3.652877 -7.31116,-5.435016 -11.575477,-4.299598 -2.050641,0.546004 -3.964375,1.699525 -5.368606,3.235977 -6.651534,7.277838 -1.189361,18.710772 8.676667,18.161229 0.940598,-0.05239 2.359282,-0.3234 3.152632,-0.60224 z M 81.912775,37.346445 c 5.745528,-2.044839 1.312587,-0.615306 9.26375,-3.410964 -2.667259,9.42627 0.175311,-0.616343 -2.649663,9.377774 -5.571272,1.922026 -1.575783,0.548502 -9.053672,3.11842 1.642495,-6.078092 1.16327,-4.278375 2.439585,-9.08523 z m 4.410984,3.386286 c 0.494134,-0.789909 0.102496,-1.779705 -0.882085,-1.951664 -0.823157,-0.143766 -1.67544,0.511641 -1.366403,1.63711 0.263823,0.960803 1.752358,1.107655 2.248488,0.314554 z"
        />
        <path
                fill="currentColor"
                d="M 121.44374,40.87694 V 20.900903 h 5.10543 5.10544 c 3.79611,8.334189 7.63795,16.647208 11.50531,24.948564 4.41139,-9.257304 5.99153,-12.757823 11.65811,-24.9651 3.42701,0.03898 6.85467,0.01654 10.28195,0.01654 V 40.876949 60.85299 h -5.02369 -5.0237 l -0.0695,-9.326562 -0.0695,-9.326563 -2.60892,5.291667 c -1.4349,2.910417 -3.30444,6.750182 -4.15454,8.532812 l -1.54562,3.241146 -3.38609,-0.0091 -3.38608,-0.0091 -1.65251,-3.496635 c -0.90888,-1.92315 -2.75435,-5.758823 -4.10104,-8.523719 l -2.44854,-5.027084 -0.0695,9.326563 -0.0695,9.326562 h -5.0237 -5.02369 z"
        />
        <path
                fill="currentColor"
                d="M 183.09129,40.858772 V 20.864434 l 10.91406,0.09742 c 10.25412,0.09153 11.00242,0.130515 12.37522,0.644801 4.94772,1.85354 7.6911,4.600394 9.30362,9.315402 0.49542,1.448615 0.60061,2.327137 0.6059,5.060241 0.0103,5.327264 -1.07779,8.353111 -4.09463,11.38653 -3.37277,3.391296 -6.02633,4.256592 -13.36146,4.357025 -2.7649,0.03786 -5.29745,0.05569 -5.40659,0.07291 -0.0128,3.288123 0.007,5.977382 -0.0174,9.054366 h -5.15938 -5.15937 z m 19.8508,1.141922 c 2.21101,-0.933674 3.33767,-3.31715 3.10502,-6.56873 -0.15227,-2.12816 -0.83871,-3.396444 -2.39683,-4.428426 -1.04278,-0.690659 -1.19525,-0.712166 -5.65595,-0.797795 l -4.58429,-0.088 v 6.189436 6.189436 l 4.30653,-0.05392 c 3.08731,-0.03866 4.56671,-0.163791 5.22552,-0.441997 z"
        />
        <path
                fill="currentColor"
                d="m 238.64623,29.243535 c 1.90775,-4.677481 2.43468,-6.03598 3.29234,-8.345196 l 5.13009,0.07156 5.1301,0.07156 1.12598,2.778125 c 0.61929,1.527969 3.36064,8.314531 6.0919,15.08125 2.73126,6.766718 5.73563,14.208125 6.67639,16.536458 0.94076,2.328333 1.81642,4.501224 1.94592,4.828646 l 0.23544,0.595312 h -5.50952 -5.50951 c -0.82433,-1.917656 -1.5473,-3.876026 -2.28363,-5.828463 l -7.95118,0.06996 -7.95117,0.06996 -1.06751,2.841323 -1.0675,2.841324 -5.49011,0.0029 c -3.01955,0.0016 -5.48718,-0.01324 -5.48718,-0.01324 z m 12.76581,16.474097 c -1.83568,-5.065418 -2.0273,-5.530314 -4.39444,-11.458205 -2.51127,6.603423 -2.63247,6.917383 -4.38138,11.520566 2.92545,-0.0099 5.73164,-0.0218 8.77582,-0.06236 z"
        />
        <path
                fill="currentColor"
                d="m 293.07177,61.388799 c -2.38196,-0.30097 -5.23162,-1.177811 -7.18358,-2.21039 -1.83314,-0.969721 -4.12848,-3.155649 -4.89849,-4.665004 -0.6279,-1.230781 -1.32665,-3.772327 -1.32665,-4.825394 v -0.738162 c 4.7045,0 6.2306,0.01755 10.04248,0.01755 0,0.830512 1.68901,2.792296 3.23363,3.305336 1.95695,0.649994 5.6426,0.623859 6.97383,-0.04945 2.12985,-1.077239 2.1513,-2.797913 0.0512,-4.108241 -0.61538,-0.383958 -3.32152,-1.498673 -6.01366,-2.477144 -2.69213,-0.978471 -5.37104,-2.019543 -5.95312,-2.313493 -3.25545,-1.643985 -5.70327,-3.743385 -6.98538,-6.361557 -0.66064,-1.349082 -0.94449,-2.165611 -0.91451,-4.417164 0.0537,-4.033179 1.34856,-6.812981 4.17834,-8.970081 3.43375,-2.617505 7.43386,-3.674348 12.81984,-3.387047 4.64976,0.248029 8.12745,1.572173 10.97005,4.176902 2.42264,2.219912 3.86529,5.242069 3.87331,8.11408 l 0.003,1.124479 h -5.02708 -5.02709 l -9.9e-4,-0.727604 c -0.003,-2.402564 -3.44023,-4.327024 -7.02892,-3.935705 -1.70635,0.186063 -2.7685,0.682827 -3.53006,1.650996 -0.69142,0.879001 -0.69118,1.177179 0.002,2.057972 0.71912,0.914219 1.89868,1.500437 6.14676,3.05484 7.67174,2.807145 10.00712,4.170437 12.67529,7.399299 1.59113,1.925486 2.08431,3.24483 2.2498,6.018629 0.12692,2.127445 0.0656,2.680056 -0.4569,4.11882 -1.08867,2.997705 -2.58998,4.688253 -5.57752,6.280596 -3.03726,1.618842 -8.82588,2.431682 -13.29539,1.86694 z"
        />
        <path
                fill="currentColor"
                d="m 340.91543,61.405778 c -5.60122,-0.730942 -10.10447,-3.218065 -12.151,-6.710943 -0.70586,-1.20471 -1.47504,-3.816112 -1.47504,-5.007849 v -0.738162 h 4.97393 4.97393 l 0.32354,0.894721 c 0.64854,1.793522 3.22169,2.90029 6.70611,2.884446 2.61385,-0.01188 4.05762,-0.536754 4.70597,-1.710811 0.34915,-0.632266 0.34542,-0.807354 -0.0342,-1.603428 -0.52506,-1.101061 -2.28065,-2.002597 -7.36178,-3.780439 -4.6424,-1.624337 -6.90722,-2.682858 -8.88391,-4.152125 -3.85379,-2.86451 -5.39591,-6.21069 -4.85715,-10.539311 0.79213,-6.364253 6.17961,-10.387341 14.40955,-10.760311 7.76154,-0.351741 13.48436,2.403531 16.17481,7.787414 0.73393,1.468672 0.9834,2.334699 1.08612,3.770313 l 0.0507,1.863698 h -4.81625 -4.89894 l -0.28458,-1.130195 c -0.53493,-2.124396 -2.58575,-3.38351 -5.73136,-3.518804 -3.05912,-0.131574 -5.15938,0.962327 -5.15938,2.687225 0,1.491868 0.86765,2.012562 7.27605,4.366518 2.03729,0.748346 4.55405,1.762681 5.5928,2.254078 3.48083,1.646661 6.75295,4.692085 7.95352,7.40248 0.34632,0.781843 0.4609,1.781079 0.46765,4.078281 0.008,2.736492 -0.0602,3.18916 -0.67822,4.497917 -2.10457,4.456852 -6.94379,6.993889 -13.8474,7.259711 -1.61036,0.06201 -3.64231,0.01952 -4.51544,-0.09442 z"
        />
    </g>
</svg>
