<svg
    width="1em"
    viewBox="0 0 7 11"
    color="currentColor"
    xmlns="http://www.w3.org/2000/svg"
>
    <path
        fill="currentColor"
        d="M6.21426 9.41032C6.33754 9.5336 6.4068 9.70081 6.4068 9.87516C6.4068 10.0495 6.33754 10.2167 6.21426 10.34C6.09097 10.4633 5.92376 10.5326 5.74941 10.5326C5.57506 10.5326 5.40785 10.4633 5.28457 10.34L0.90957 5.96501C0.84839 5.90404 0.799847 5.83159 0.766725 5.75182C0.733603 5.67206 0.716553 5.58653 0.716553 5.50016C0.716553 5.41379 0.733603 5.32827 0.766725 5.2485C0.799847 5.16873 0.84839 5.09629 0.90957 5.03532L5.28457 0.660318C5.40785 0.537034 5.57506 0.467773 5.74941 0.467773C5.92376 0.467773 6.09097 0.537034 6.21426 0.660318C6.33754 0.783602 6.4068 0.950811 6.4068 1.12516C6.4068 1.29951 6.33754 1.46672 6.21426 1.59001L2.30465 5.49962L6.21426 9.41032Z"
    />
</svg>
