<svg
    width="1em"
    height="1em"
    viewBox="0 0 14 14"
    color="currentColor"
    xmlns="http://www.w3.org/2000/svg"
>
    <path
        d="M12.2501 7.00024C12.2501 7.11628 12.204 7.22756 12.122 7.3096C12.0399 7.39165 11.9286 7.43774 11.8126 7.43774H3.24362L6.43463 10.6282C6.47528 10.6689 6.50752 10.7171 6.52952 10.7702C6.55152 10.8233 6.56284 10.8803 6.56284 10.9377C6.56284 10.9952 6.55152 11.0522 6.52952 11.1053C6.50752 11.1584 6.47528 11.2066 6.43463 11.2473C6.39398 11.2879 6.34573 11.3202 6.29262 11.3422C6.23951 11.3642 6.18259 11.3755 6.1251 11.3755C6.06762 11.3755 6.01069 11.3642 5.95758 11.3422C5.90447 11.3202 5.85622 11.2879 5.81557 11.2473L1.87807 7.30977C1.83739 7.26914 1.80512 7.22089 1.78311 7.16778C1.76109 7.11467 1.74976 7.05774 1.74976 7.00024C1.74976 6.94275 1.76109 6.88582 1.78311 6.83271C1.80512 6.7796 1.83739 6.73134 1.87807 6.69071L5.81557 2.75321C5.89766 2.67112 6.009 2.625 6.1251 2.625C6.2412 2.625 6.35254 2.67112 6.43463 2.75321C6.51672 2.8353 6.56284 2.94665 6.56284 3.06274C6.56284 3.17884 6.51672 3.29018 6.43463 3.37227L3.24362 6.56274H11.8126C11.9286 6.56274 12.0399 6.60884 12.122 6.69088C12.204 6.77293 12.2501 6.88421 12.2501 7.00024Z"
        fill="currentColor"
    />
</svg>
