<svg
    width="1em"
    height="1em"
    viewBox="0 0 14 14"
    color="currentColor"
    xmlns="http://www.w3.org/2000/svg"
>
    <path
        opacity="0.2"
        d="M12.25 7C12.25 8.03835 11.9421 9.05339 11.3652 9.91674C10.7883 10.7801 9.9684 11.453 9.00909 11.8504C8.04978 12.2477 6.99418 12.3517 5.97578 12.1491C4.95738 11.9466 4.02192 11.4465 3.28769 10.7123C2.55347 9.97808 2.05345 9.04262 1.85088 8.02422C1.64831 7.00582 1.75227 5.95022 2.14963 4.99091C2.54699 4.0316 3.2199 3.21166 4.08326 2.63478C4.94662 2.05791 5.96165 1.75 7 1.75C8.39239 1.75 9.72775 2.30312 10.7123 3.28769C11.6969 4.27226 12.25 5.60761 12.25 7Z"
        fill="currentColor"
    />
    <path
        d="M9.49703 5.37797C9.53771 5.4186 9.56998 5.46685 9.592 5.51996C9.61401 5.57308 9.62535 5.63001 9.62535 5.6875C9.62535 5.74499 9.61401 5.80192 9.592 5.85504C9.56998 5.90815 9.53771 5.9564 9.49703 5.99703L6.43453 9.05953C6.3939 9.10021 6.34565 9.13248 6.29254 9.1545C6.23943 9.17651 6.1825 9.18784 6.125 9.18784C6.06751 9.18784 6.01058 9.17651 5.95747 9.1545C5.90435 9.13248 5.8561 9.10021 5.81547 9.05953L4.50297 7.74703C4.42088 7.66494 4.37476 7.5536 4.37476 7.4375C4.37476 7.3214 4.42088 7.21006 4.50297 7.12797C4.58506 7.04588 4.69641 6.99976 4.8125 6.99976C4.9286 6.99976 5.03994 7.04588 5.12203 7.12797L6.125 8.13148L8.87797 5.37797C8.9186 5.33729 8.96685 5.30502 9.01997 5.28301C9.07308 5.26099 9.13001 5.24966 9.1875 5.24966C9.245 5.24966 9.30193 5.26099 9.35504 5.28301C9.40815 5.30502 9.4564 5.33729 9.49703 5.37797ZM12.6875 7C12.6875 8.12488 12.3539 9.2245 11.729 10.1598C11.104 11.0951 10.2158 11.8241 9.17651 12.2546C8.13726 12.685 6.99369 12.7977 5.89043 12.5782C4.78716 12.3588 3.77374 11.8171 2.97833 11.0217C2.18292 10.2263 1.64124 9.21284 1.42179 8.10958C1.20233 7.00631 1.31496 5.86274 1.74544 4.82349C2.17591 3.78423 2.90489 2.89597 3.8402 2.27102C4.7755 1.64607 5.87512 1.3125 7 1.3125C8.50793 1.31409 9.95365 1.91382 11.0199 2.98009C12.0862 4.04636 12.6859 5.49207 12.6875 7ZM11.8125 7C11.8125 6.04818 11.5303 5.11773 11.0014 4.32632C10.4726 3.53491 9.72104 2.91808 8.84167 2.55383C7.9623 2.18958 6.99466 2.09428 6.06113 2.27997C5.1276 2.46566 4.27009 2.92401 3.59705 3.59705C2.92401 4.27009 2.46566 5.12759 2.27997 6.06113C2.09428 6.99466 2.18959 7.9623 2.55383 8.84166C2.91808 9.72103 3.53491 10.4726 4.32632 11.0014C5.11773 11.5303 6.04818 11.8125 7 11.8125C8.27591 11.8111 9.49915 11.3036 10.4014 10.4014C11.3036 9.49915 11.8111 8.27591 11.8125 7Z"
        fill="currentColor"
    />
</svg>
